<svg xmlns="http://www.w3.org/2000/svg" width="284.896" height="150.955" viewBox="0 0 284.896 150.955">
  <g id="CTA" transform="translate(-534.652 -639.948)">
    <path id="Path_2" data-name="Path 2" d="M582.176,787.6V701.467" transform="translate(-5)" fill="none" stroke="#992e2e" stroke-width="20"/>
    <path id="Path_3" data-name="Path 3" d="M598.757,735.089c-23.49-18.423-40.493-41.162-51.664-57.033" transform="translate(-137.648 1282.497) rotate(-90)" fill="none" stroke="#992e2e" stroke-width="20"/>
    <path id="Path_4" data-name="Path 4" d="M553.62,688.57c20.726-18.884,30.4-32.241,39.149-41.913" transform="translate(-4)" fill="none" stroke="#992e2e" stroke-width="20"/>
    <path id="Path_5" data-name="Path 5" d="M616.719,660.935H680.74" transform="translate(5)" fill="none" stroke="#992e2e" stroke-width="20"/>
    <path id="Path_6" data-name="Path 6" d="M609.429,698.7h78.22" transform="translate(5)" fill="none" stroke="#992e2e" stroke-width="20"/>
    <path id="Path_7" data-name="Path 7" d="M648.73,698.7v70.772C648.73,789.618,615.8,777,615.8,777" transform="translate(5)" fill="none" stroke="#992e2e" stroke-width="20"/>
    <path id="Path_8" data-name="Path 8" d="M804.176,650.342s-48.361,48.822-53.428,54.349-6.448,7.83,2.3,15.66,59.876,52.967,59.876,52.967" fill="none" stroke="#992e2e" stroke-width="20"/>
  </g>
</svg>
